<?xml version="1.0" encoding="UTF-8"?>
<!-- Generator: visioncortex VTracer 0.6.2 -->
<svg version="1.1" xmlns="http://www.w3.org/2000/svg" width="1280" height="517">
<path d="M0 0 C1.8354964 -0.00271896 3.6709917 -0.00628491 5.50648499 -0.01062012 C10.43418432 -0.0196389 15.36179871 -0.01624386 20.28949928 -0.00986195 C25.48202341 -0.00474688 30.67454097 -0.00950853 35.86706543 -0.01263428 C44.58180019 -0.01625804 53.29650089 -0.01151679 62.01123047 -0.00195312 C72.04167711 0.00892832 82.07204241 0.00540162 92.10248709 -0.00560594 C100.76293931 -0.01472436 109.42336725 -0.01594194 118.08382273 -0.0107286 C123.23508948 -0.00763381 128.38631819 -0.00713012 133.5375824 -0.01380157 C138.3837757 -0.01964118 143.2298656 -0.01545914 148.0760479 -0.00401306 C149.83908861 -0.00140143 151.60213826 -0.00207043 153.36517525 -0.00653839 C169.41693008 -0.04342128 185.09835474 1.18281065 200.76757812 4.88378906 C201.86690674 5.14321289 202.96623535 5.40263672 204.09887695 5.66992188 C230.78085574 12.25386213 254.45040878 25.16883457 269.06518555 49.25927734 C270.77613801 52.20868446 272.35696334 55.21498118 273.89257812 58.25878906 C274.43914062 59.3403125 274.98570312 60.42183594 275.54882812 61.53613281 C287.76639328 88.74514908 285.58579325 119.5290502 285.43247938 148.59946871 C285.4046178 154.85823453 285.40492463 161.11700583 285.40176392 167.37582397 C285.39203731 178.51711183 285.36021298 189.65819051 285.31693371 200.79939465 C285.27801756 210.90255897 285.2539556 221.00565406 285.24267578 231.10888672 C285.24192757 231.77628878 285.24117935 232.44369085 285.24040847 233.13131721 C285.23743383 235.81442558 285.23449651 238.49753399 285.23162218 241.18064246 C285.21959944 252.10503283 285.19777169 263.02940642 285.17404222 273.95377684 C285.16867775 276.43937492 285.16354143 278.92497351 285.15862989 281.41057253 C285.14437812 288.47137159 285.12501411 295.53211739 285.09715271 302.59287643 C285.08940622 304.73394985 285.08335528 306.87503013 285.07907486 309.01611328 C285.07289675 311.92424532 285.06056496 314.83228408 285.04647827 317.74038696 C285.04598051 318.5984112 285.04548276 319.45643544 285.04496992 320.34046042 C285.00684745 326.14451974 285.00684745 326.14451974 283.89257812 327.25878906 C280.76234328 327.35947323 277.65412892 327.39493067 274.5234375 327.38818359 C273.53978714 327.38993591 272.55613678 327.39168823 271.54267883 327.39349365 C268.2738776 327.39791411 265.00512996 327.39497349 261.73632812 327.39160156 C259.4757079 327.39227455 257.21508775 327.39324452 254.95446777 327.39450073 C250.20970981 327.39597797 245.46497063 327.39382232 240.72021484 327.38916016 C234.62319188 327.38346286 228.52621293 327.38674173 222.42919159 327.39273262 C217.75909083 327.39633754 213.0890006 327.39519997 208.41889954 327.39260483 C206.17011001 327.39193537 203.92131955 327.39276464 201.67253113 327.39508438 C198.53556774 327.39760977 195.39867671 327.39377191 192.26171875 327.38818359 C191.32246048 327.39020782 190.38320221 327.39223206 189.41548157 327.39431763 C183.00684038 327.37305131 183.00684038 327.37305131 181.89257812 326.25878906 C181.89257812 297.21878906 181.89257812 268.17878906 181.89257812 238.25878906 C111.60257813 238.25878906 41.31257812 238.25878906 -31.10742188 238.25878906 C-31.10742188 266.96878906 -31.10742188 295.67878906 -31.10742188 325.25878906 C-31.43742188 325.91878906 -31.76742187 326.57878906 -32.10742188 327.25878906 C-65.76742187 327.25878906 -99.42742187 327.25878906 -134.10742188 327.25878906 C-134.22833098 270.59720107 -134.22833098 270.59720107 -134.25390625 246.78417969 C-134.25979626 241.34383112 -134.26583993 235.90348279 -134.2722168 230.46313477 C-134.27300804 229.78138988 -134.27379929 229.099645 -134.27461451 228.39724118 C-134.28761931 217.42855338 -134.31124664 206.45991335 -134.33888026 195.49125376 C-134.36705552 184.21251268 -134.38339942 172.93379522 -134.38968736 161.6550172 C-134.39358149 155.32913943 -134.40266549 149.00336951 -134.42461205 142.67752647 C-134.445147 136.70956646 -134.45122166 130.74175756 -134.44674492 124.77376556 C-134.44756257 122.5967228 -134.45342592 120.41967438 -134.4650383 118.24266243 C-134.54969146 101.53693632 -133.86410122 84.76814382 -127.91992188 68.94628906 C-127.61876465 68.1207251 -127.31760742 67.29516113 -127.00732422 66.44458008 C-117.55908088 41.46035778 -99.3499076 23.57270651 -75.36791992 12.44775391 C-67.38808228 8.96899044 -59.14530654 6.86514361 -50.66992188 4.94628906 C-49.59967773 4.70370361 -48.52943359 4.46111816 -47.42675781 4.21118164 C-31.67370307 0.86643593 -16.04893219 -0.04067187 0 0 Z M-20.10742188 97.25878906 C-24.60173086 102.67474205 -27.43178568 108.45637192 -29.10742188 115.25878906 C-29.31238281 116.05929688 -29.51734375 116.85980469 -29.72851562 117.68457031 C-32.02597052 128.63313124 -31.10742188 138.74861253 -31.10742188 150.25878906 C39.18257812 150.25878906 109.47257813 150.25878906 181.89257812 150.25878906 C182.32188321 131.20280152 182.32188321 131.20280152 178.89257812 113.25878906 C178.62574219 112.35128906 178.35890625 111.44378906 178.08398438 110.50878906 C175.16361306 101.99428425 169.19952222 94.81190284 161.36132812 90.31738281 C149.71578708 85.32380429 137.5853061 84.11038805 125.07666016 84.09765625 C123.90325577 84.09269135 122.72985138 84.08772644 121.52088928 84.08261108 C117.64738369 84.06803495 113.77391912 84.06119327 109.90039062 84.05566406 C108.55759533 84.05292488 107.21480026 84.05006822 105.87200546 84.04709625 C99.5549981 84.03343525 93.23800358 84.02376415 86.92098248 84.01989436 C79.67595527 84.01542961 72.43111823 83.99794995 65.18614876 83.96889377 C59.55690998 83.94711716 53.92772404 83.93718151 48.29844368 83.93585324 C44.9505595 83.93481569 41.60299522 83.92763899 38.25513077 83.91103363 C7.02573722 83.34646959 7.02573722 83.34646959 -20.10742188 97.25878906 Z " fill="#FEFEFE" transform="translate(566.107421875,2.7412109375)"/>
<path d="M0 0 C1.70340581 -0.00463926 3.4068106 -0.00966537 5.11021423 -0.01504517 C9.70820982 -0.02807117 14.30619086 -0.03459571 18.90420198 -0.03905582 C21.79099879 -0.04200464 24.67779178 -0.04611284 27.56458664 -0.05056 C36.63723912 -0.06421391 45.7098827 -0.07388883 54.78254473 -0.07776189 C65.17881489 -0.08222685 75.57495254 -0.09971077 85.97118247 -0.12876248 C94.05584297 -0.15055263 102.1404667 -0.16047543 110.22515619 -0.16180301 C115.03027938 -0.16283945 119.83527772 -0.16849336 124.64036942 -0.18662262 C145.23600916 -0.25988839 165.40053186 -0.05093545 185.80224609 3.16113281 C186.72800068 3.30606926 187.65375526 3.45100571 188.60756302 3.60033417 C213.61547601 7.60350026 235.91574083 17.03684535 253.80224609 35.16113281 C254.91019531 36.27101563 254.91019531 36.27101563 256.04052734 37.40332031 C270.26574543 52.48481366 276.96466479 71.97065042 279.80224609 92.16113281 C279.97523948 93.35807266 280.14823286 94.55501251 280.32646847 95.78822327 C280.90159579 100.44688267 280.93838321 105.05203198 280.92250061 109.7409668 C280.92378225 111.14166947 280.92378225 111.14166947 280.92508978 112.57066917 C280.92672985 115.68287482 280.92124741 118.79502592 280.91577148 121.90722656 C280.91548927 124.14483133 280.91564802 126.38243618 280.91621399 128.62004089 C280.91650062 134.6834315 280.91062552 140.74680229 280.90364003 146.81018829 C280.89738421 153.15096435 280.89680093 159.49174087 280.89561462 165.83251953 C280.89286075 176.47152082 280.88661666 187.11051429 280.87768555 197.74951172 C280.86849842 208.704915 280.86142395 219.6603163 280.85717773 230.61572266 C280.85678365 231.62964197 280.85678365 231.62964197 280.8563816 232.6640445 C280.85507651 236.05526359 280.85381282 239.44648269 280.8525697 242.8377018 C280.84221274 270.94551718 280.82453347 299.05332455 280.80224609 327.16113281 C267.520372 327.18425361 254.23850266 327.20204655 240.95661259 327.21294498 C234.78999689 327.21817439 228.62339491 327.22527308 222.45678711 327.23657227 C216.51108604 327.2473991 210.5653982 327.25340921 204.61968803 327.25601006 C202.34577666 327.25786467 200.07186605 327.26148598 197.79796028 327.26686287 C194.62497489 327.27407059 191.45204493 327.27512387 188.27905273 327.2746582 C187.32887268 327.27825348 186.37869263 327.28184875 185.39971924 327.28555298 C178.91629826 327.27518497 178.91629826 327.27518497 177.80224609 326.16113281 C177.69876111 323.65736786 177.6606574 321.1808621 177.66421509 318.6763916 C177.66139381 317.88307198 177.65857253 317.08975236 177.65566576 316.27239275 C177.64727999 313.5927183 177.64597805 310.91308496 177.64453125 308.23339844 C177.63986546 306.31997053 177.63472229 304.40654373 177.62913513 302.49311829 C177.61782806 298.35921838 177.60940606 294.22532579 177.6030159 290.09141541 C177.59234534 283.54207673 177.57209835 276.99278992 177.54989624 270.44348145 C177.48795536 251.81439619 177.43410068 233.18531251 177.40087891 214.55615234 C177.38246747 204.27720509 177.35344116 193.99834336 177.3128742 183.71945906 C177.29189536 178.2834762 177.27636012 172.84760077 177.27406693 167.41157532 C177.27190139 162.28320473 177.2558401 157.15505691 177.2296772 152.02675438 C177.22255188 150.15689006 177.22034982 148.28699854 177.22377968 146.41712379 C177.28058762 120.23867693 177.28058762 120.23867693 165.47802734 97.59863281 C149.46848745 83.86550768 128.92671491 85.69195645 109.15360188 85.72522473 C106.27881443 85.72835021 103.40407456 85.72218744 100.52929395 85.71618599 C93.73717979 85.70221856 86.94519162 85.70363689 80.15307617 85.71508789 C73.19277591 85.72656456 66.23286119 85.71248336 59.27261168 85.68569142 C53.25169961 85.66340025 47.23090738 85.65692687 41.20995706 85.66276783 C37.63364719 85.66610643 34.05758425 85.66393247 30.48130989 85.6465168 C1.0867242 85.10400748 1.0867242 85.10400748 -24.02587891 98.86425781 C-32.10962437 108.25446718 -34.34068212 122.56080018 -34.35597229 134.51339722 C-34.36091027 135.33931779 -34.36584824 136.16523836 -34.37093586 137.01618683 C-34.38625674 139.77527494 -34.39465677 142.53433988 -34.40307617 145.29345703 C-34.41265895 147.27461449 -34.42266927 149.25576991 -34.43307495 151.23692322 C-34.46008675 156.6103505 -34.48111648 161.98378653 -34.50107694 167.35724401 C-34.52295947 172.97467991 -34.55033707 178.59208895 -34.57713318 184.20950317 C-34.6270294 194.84470364 -34.67197963 205.47991903 -34.71515554 216.11514866 C-34.77379103 230.48807729 -34.84006142 244.86097057 -34.90590572 259.23386765 C-35.00943238 281.87626555 -35.10275349 304.51869381 -35.19775391 327.16113281 C-69.18775391 327.16113281 -103.17775391 327.16113281 -138.19775391 327.16113281 C-139.78902955 323.97858153 -139.33821946 320.53992298 -139.33146667 317.04483032 C-139.33373223 316.19560324 -139.33599779 315.34637616 -139.338332 314.47141492 C-139.34469246 311.60837109 -139.34384127 308.74537436 -139.34301758 305.88232422 C-139.34600816 303.83568765 -139.34941045 301.78905164 -139.35319519 299.74241638 C-139.36205868 294.16492052 -139.36437454 288.58743999 -139.36501098 283.00993776 C-139.3657212 279.51987199 -139.36785518 276.02981013 -139.37050819 272.53974533 C-139.37977571 260.34648135 -139.38384212 248.15322832 -139.38305664 235.95996094 C-139.38245837 224.62795435 -139.39295707 213.29599576 -139.4088003 201.9640013 C-139.42193534 192.2185038 -139.42723791 182.47302185 -139.42660123 172.72751558 C-139.4263476 166.91530766 -139.42912248 161.10314219 -139.43977928 155.29094315 C-139.44955859 149.80640386 -139.44947304 144.32194667 -139.44226265 138.83740425 C-139.44122826 136.83978084 -139.44351021 134.84215206 -139.44962311 132.84453773 C-139.49680186 116.33753215 -138.78240484 99.79281826 -135.32275391 83.59863281 C-135.1491333 82.7676709 -134.9755127 81.93670898 -134.79663086 81.08056641 C-129.45737856 56.43749231 -115.72256918 35.01824333 -94.45947266 21.18457031 C-66.26137059 3.69161598 -32.53318092 0.02085695 0 0 Z " fill="#FEFEFE" transform="translate(999.19775390625,3.8388671875)"/>
<path d="M0 0 C1.13795344 0.00138269 1.13795344 0.00138269 2.29889584 0.00279331 C3.16692837 0.00141865 4.0349609 0.00004398 4.92929745 -0.00137234 C5.88882824 0.00222294 6.84835903 0.00581821 7.83696651 0.00952244 C8.84173031 0.00937641 9.8464941 0.00923038 10.88170528 0.00907993 C14.22024817 0.00977953 17.55873604 0.01757409 20.89726925 0.02539158 C23.20512518 0.02725559 25.51298151 0.02867957 27.82083797 0.0296793 C33.90854126 0.03350578 39.99622086 0.04333718 46.08391476 0.05438328 C52.29057654 0.0645946 58.49724212 0.06917632 64.70390987 0.0742197 C76.89207135 0.08495933 89.08021521 0.10203731 101.268363 0.12304783 C101.27332822 1.66168853 101.27332822 1.66168853 101.27839375 3.23141289 C101.35945681 28.2125076 101.45179338 53.19354137 101.55589008 78.17455101 C101.60597097 90.25527085 101.65241441 102.33598405 101.690238 114.416749 C101.72322166 124.94868606 101.76308805 135.48057097 101.81115305 146.0124504 C101.83635466 151.58684344 101.85815461 157.16120216 101.87170696 162.73563671 C101.8845849 167.98787666 101.90670073 173.23999855 101.93574619 178.49217319 C101.94477728 180.4145457 101.9505017 182.3369372 101.95257664 184.2593298 C101.89051345 202.48002516 101.89051345 202.48002516 107.643363 219.56054783 C108.22859737 220.71425877 108.81383175 221.8679697 109.4168005 223.05664158 C111.13305666 225.89896455 112.90216113 227.83502443 115.268363 230.12304783 C115.268363 230.78304783 115.268363 231.44304783 115.268363 232.12304783 C116.258363 232.49429783 116.258363 232.49429783 117.268363 232.87304783 C119.58371724 233.83777876 121.64078494 234.86720676 123.830863 236.06054783 C133.39882064 240.82778871 143.30574494 241.56448878 153.83281612 241.51123142 C155.13202496 241.51648838 156.43123379 241.52174534 157.76981258 241.5271616 C161.29674226 241.54070423 164.82340529 241.53559136 168.35033894 241.52602434 C172.06427186 241.51835927 175.77818394 241.52549216 179.49211788 241.53018284 C185.72567952 241.53562066 191.95913407 241.52850094 198.19267941 241.51416111 C205.37049681 241.49783836 212.54805844 241.50312828 219.72586966 241.51964033 C225.91990054 241.5333118 232.11385502 241.53514736 238.30789614 241.52732432 C241.99361861 241.52267873 245.67922138 241.52193607 249.36493587 241.53193378 C253.478078 241.54231424 257.59078828 241.52787425 261.70390987 241.51123142 C262.90426373 241.51730412 264.10461758 241.52337681 265.34134579 241.52963352 C278.932409 241.42834131 291.87428238 238.28646931 302.268363 229.12304783 C311.52785513 217.63371882 313.40781363 203.97949279 313.42658138 189.64416599 C313.43398835 188.42109784 313.43398835 188.42109784 313.44154495 187.17332125 C313.45680996 184.46190389 313.46525049 181.75051 313.47368526 179.03906345 C313.48327245 177.08716726 313.49328302 175.13527311 313.50368404 173.18338108 C313.53064809 167.89891248 313.55170353 162.61443502 313.57168603 157.32993603 C313.59359818 151.80193194 313.62096123 146.27395489 313.64774227 140.74597263 C313.69759857 130.28437712 313.74256354 119.82276656 313.78576463 109.36114168 C313.84444435 95.21980011 313.91069318 81.07849413 313.97651482 66.93718433 C314.07997899 44.6658295 314.17334161 22.39444399 314.268363 0.12304783 C348.258363 0.12304783 382.248363 0.12304783 417.268363 0.12304783 C417.3892721 56.57416442 417.3892721 56.57416442 417.41484737 80.29101658 C417.42073746 85.70947387 417.42678115 91.12793093 417.43315792 96.54638767 C417.43434479 97.56490222 417.43434479 97.56490222 417.43555564 98.60399282 C417.4485635 109.53133079 417.47219257 120.45862085 417.49982139 131.38593052 C417.52798803 142.62059627 417.54433872 153.85523832 417.55062848 165.08994114 C417.55452408 171.39175391 417.56361758 177.69345847 417.58555317 183.9952364 C417.60607424 189.93939096 417.61216551 195.88339382 417.60768604 201.82758045 C417.60850431 203.9969805 417.61437606 206.16638618 417.62597942 208.33575535 C417.71030284 224.92951888 416.64496225 240.93963459 411.143363 256.74804783 C410.8426086 257.62138767 410.54185421 258.49472752 410.23198605 259.3945322 C404.98021798 274.02627065 397.37087879 285.31722374 386.268363 296.12304783 C385.63027706 296.74695408 384.99219112 297.37086033 384.33476925 298.01367283 C372.40682517 308.88326216 357.11054431 315.19735671 341.893363 319.87304783 C341.01720333 320.15470798 340.14104366 320.43636814 339.2383337 320.72656345 C314.77026529 327.86281729 288.51940602 326.5743261 263.31669664 326.52602434 C258.01844605 326.51831304 252.72020935 326.52550439 247.42195797 326.53018284 C238.53463044 326.53560662 229.64737825 326.52853739 220.76006222 326.51416111 C210.54833154 326.49783112 200.3367806 326.50313946 190.12505424 326.51964033 C181.28603184 326.53334029 172.44706291 326.53513393 163.6080333 326.52732432 C158.36000292 326.52269548 153.11205647 326.52188862 147.86403179 326.53193378 C104.64923503 326.60323026 59.4547 325.15574238 26.143363 293.43554783 C7.44713966 273.99858664 -0.86815285 247.67360751 -2.28604984 221.07960606 C-2.32817722 220.29702917 -2.3703046 219.51445228 -2.41370857 218.70816094 C-2.88742588 209.08054462 -2.87180667 199.45502028 -2.86103153 189.81811619 C-2.8623902 187.74814416 -2.86417273 185.67817237 -2.86634159 183.60820103 C-2.87085575 178.04738755 -2.86915272 172.48659286 -2.86596251 166.9257791 C-2.86341333 161.09135278 -2.86578299 155.25692796 -2.86734867 149.42250156 C-2.86916048 139.64779467 -2.86678752 129.87309537 -2.86200809 120.09838963 C-2.85654143 108.78727044 -2.85834943 97.47616921 -2.8638345 86.16505045 C-2.86836303 76.43736235 -2.86901824 66.70967968 -2.86639583 56.98199087 C-2.86483494 51.17790657 -2.8646347 45.37383074 -2.86793232 39.56974697 C-2.87080811 34.13021526 -2.86884082 28.69070695 -2.86303806 23.25117779 C-2.86171 21.25039935 -2.86210536 19.24961896 -2.86430073 17.24884129 C-2.86700975 14.53073049 -2.8636345 11.81269604 -2.85862064 9.09459019 C-2.86085137 8.29268204 -2.86308209 7.4907739 -2.86538041 6.6645655 C-2.84205153 0.20195241 -2.84205153 0.20195241 0 0 Z " fill="#FEFEFE" transform="translate(5.731637001037598,5.876952171325684)"/>
<path d="M0 0 C11.12947481 0.22927556 11.12947481 0.22927556 15.16918945 3.48779297 C18.06602515 6.62391372 20.0384526 10.20899915 22.0793457 13.94091797 C23.35513026 15.59489953 24.66588309 17.22275091 26.0168457 18.81591797 C27.37139355 20.52394908 28.72550439 22.23232679 30.0793457 23.94091797 C32.24370611 26.65109798 34.41171837 29.35835067 36.5793457 32.06591797 C38.41280751 34.35748186 40.2460972 36.64918343 42.0793457 38.94091797 C42.11692993 37.26751343 42.11692993 37.26751343 42.15527344 35.56030273 C42.24917992 31.43599207 42.34944084 27.31185647 42.45166016 23.18774414 C42.4950727 21.40002527 42.53674299 19.61226323 42.57666016 17.82446289 C42.6342103 15.26028406 42.69794774 12.69632385 42.76293945 10.13232422 C42.77965195 9.32815567 42.79636444 8.52398712 42.81358337 7.69544983 C42.965474 2.05478968 42.965474 2.05478968 44.0793457 0.94091797 C50.3493457 0.94091797 56.6193457 0.94091797 63.0793457 0.94091797 C63.0793457 20.08091797 63.0793457 39.22091797 63.0793457 58.94091797 C34.08122643 60.45386332 34.08122643 60.45386332 29.24731445 56.76123047 C27.18520809 54.18274258 25.53666564 51.67715135 24.05444336 48.72900391 C22.29661425 45.50558367 19.89438819 42.77577785 17.5793457 39.94091797 C16.75484493 38.87964677 15.93196036 37.81711821 15.1105957 36.75341797 C10.8599366 31.40722817 6.45184959 26.18792263 2.0793457 20.94091797 C1.7493457 33.48091797 1.4193457 46.02091797 1.0793457 58.94091797 C-5.5206543 58.94091797 -12.1206543 58.94091797 -18.9206543 58.94091797 C-18.94321007 51.52631434 -18.96157214 44.11172932 -18.97246647 36.69709873 C-18.97769412 33.25451449 -18.98478961 29.81195485 -18.99609375 26.36938477 C-19.00899664 22.41536754 -19.01388348 18.46136041 -19.01831055 14.50732422 C-19.02347183 13.26568008 -19.02863312 12.02403595 -19.03395081 10.74476624 C-19.03402634 9.60365891 -19.03410187 8.46255157 -19.03417969 7.28686523 C-19.0364003 6.27648697 -19.03862091 5.2661087 -19.04090881 4.22511292 C-18.70999663 -2.06045508 -5.17742779 0.05151358 0 0 Z " fill="#FEFEFE" transform="translate(1109.920654296875,458.05908203125)"/>
<path d="M0 0 C10.73389879 0.20721283 10.73389879 0.20721283 14.45214844 2.90185547 C16.9496361 5.72995154 18.80001075 8.51834292 20.65136719 11.80029297 C21.87346822 13.36416802 23.12356337 14.90659171 24.40136719 16.42529297 C25.02527344 17.21935547 25.64917969 18.01341797 26.29199219 18.83154297 C29.5285918 22.90408553 32.84052213 26.91302576 36.15136719 30.92529297 C36.7878418 31.69695801 37.42431641 32.46862305 38.08007812 33.26367188 C39.60326233 35.10969135 41.12700353 36.95524741 42.65136719 38.80029297 C42.68895142 37.12688843 42.68895142 37.12688843 42.72729492 35.41967773 C42.8212014 31.29536707 42.92146233 27.17123147 43.02368164 23.04711914 C43.06709419 21.25940027 43.10876447 19.47163823 43.14868164 17.68383789 C43.20623179 15.11965906 43.26996922 12.55569885 43.33496094 9.99169922 C43.35167343 9.18753067 43.36838593 8.38336212 43.38560486 7.55482483 C43.53749548 1.91416468 43.53749548 1.91416468 44.65136719 0.80029297 C45.98180344 0.70192087 47.31730063 0.66950705 48.65136719 0.66748047 C49.45574219 0.66619141 50.26011719 0.66490234 51.08886719 0.66357422 C51.93449219 0.66744141 52.78011719 0.67130859 53.65136719 0.67529297 C54.91980469 0.66949219 54.91980469 0.66949219 56.21386719 0.66357422 C57.01824219 0.66486328 57.82261719 0.66615234 58.65136719 0.66748047 C59.39386719 0.6686084 60.13636719 0.66973633 60.90136719 0.67089844 C62.65136719 0.80029297 62.65136719 0.80029297 63.65136719 1.80029297 C63.74507343 3.58021221 63.7688099 5.36386036 63.76489258 7.14624023 C63.76477928 8.85790123 63.76477928 8.85790123 63.7646637 10.60414124 C63.75950241 11.84578537 63.75434113 13.0874295 63.74902344 14.36669922 C63.74760849 15.63045883 63.74619354 16.89421844 63.74473572 18.1962738 C63.74007301 21.56154186 63.73108199 24.92674287 63.72003174 28.29199219 C63.70981565 31.72378966 63.70523767 35.15559405 63.70019531 38.58740234 C63.68914099 45.32505121 63.67238429 52.06266822 63.65136719 58.80029297 C35.52488327 61.11254569 35.52488327 61.11254569 29.26855469 56.03466797 C26.61472221 53.18083419 24.58091587 50.00178993 22.68945312 46.60400391 C21.20084483 44.01749447 19.32585616 41.82336862 17.40136719 39.55029297 C16.15043598 37.96769524 14.9004408 36.38435722 13.65136719 34.80029297 C12.21482298 33.00785987 10.77732731 31.21618888 9.33886719 29.42529297 C7.05576614 26.58183649 4.84060778 23.71928043 2.65136719 20.80029297 C2.32136719 33.34029297 1.99136719 45.88029297 1.65136719 58.80029297 C-4.94863281 58.80029297 -11.54863281 58.80029297 -18.34863281 58.80029297 C-18.37118859 51.38568934 -18.38955065 43.97110432 -18.40044498 36.55647373 C-18.40567263 33.11388949 -18.41276812 29.67132985 -18.42407227 26.22875977 C-18.43697516 22.27474254 -18.44186199 18.32073541 -18.44628906 14.36669922 C-18.45145035 13.12505508 -18.45661163 11.88341095 -18.46192932 10.60414124 C-18.46200485 9.46303391 -18.46208038 8.32192657 -18.4621582 7.14624023 C-18.46437881 6.13586197 -18.46659943 5.1254837 -18.46888733 4.08448792 C-18.13612275 -2.2362657 -4.75983188 0.06120633 0 0 Z " fill="#FEFEFE" transform="translate(430.3486328125,458.19970703125)"/>
<path d="M0 0 C0.82965271 -0.0033284 1.65930542 -0.0066568 2.51409912 -0.01008606 C4.26216075 -0.0151248 6.0102319 -0.01749533 7.75830078 -0.01733398 C10.40023078 -0.0195134 13.0417378 -0.03768229 15.68359375 -0.05664062 C39.98302463 -0.14067903 39.98302463 -0.14067903 47.59692383 6.29516602 C53.02635807 12.75140382 52.61013857 22.2671198 52.484375 30.23046875 C52.48759766 31.25462891 52.49082031 32.27878906 52.49414062 33.33398438 C52.44343535 40.54796212 52.20534141 47.7035445 48.484375 54.04296875 C41.92974987 60.06613779 34.6861911 59.60948955 26.23046875 59.56640625 C24.36890892 59.57071152 24.36890892 59.57071152 22.46974182 59.57510376 C19.18563858 59.57765977 15.90196606 59.56564475 12.61791992 59.54882812 C10.60948106 59.54296906 8.60143491 59.54881505 6.59301758 59.55908203 C2.7219833 59.57763217 -1.14847262 59.57536583 -5.01953125 59.56640625 C-6.81034874 59.57551529 -6.81034874 59.57551529 -8.63734436 59.58480835 C-16.20484703 59.52080722 -20.97917887 58.9521661 -26.578125 53.48046875 C-31.5944916 46.91146479 -31.13937996 38.53923127 -31.078125 30.66796875 C-31.08585937 29.67410156 -31.09359375 28.68023437 -31.1015625 27.65625 C-31.07918504 19.18638065 -30.54216964 12.04546413 -24.53125 5.640625 C-17.73600299 -0.2350817 -8.49192304 0.01207761 0 0 Z M-9.828125 20.16796875 C-12.32186537 26.24314475 -11.64947556 34.92792177 -9.453125 40.91796875 C-8.02366527 43.2632212 -8.02366527 43.2632212 -5.828125 44.16796875 C-3.30982083 44.29091281 -0.82019335 44.35630429 1.69921875 44.37109375 C2.44393936 44.37679382 3.18865997 44.3824939 3.95594788 44.3883667 C5.53205951 44.39781666 7.10819091 44.40435067 8.68432617 44.40820312 C11.09654103 44.41791707 13.50790677 44.44894236 15.91992188 44.48046875 C17.45051577 44.48699807 18.98111576 44.49224882 20.51171875 44.49609375 C21.23366928 44.50844055 21.95561981 44.52078735 22.69944763 44.5335083 C26.63288532 44.52539234 26.63288532 44.52539234 30.08813477 42.83496094 C32.58101407 39.00045319 32.36949286 35.23671994 32.421875 30.79296875 C32.46054687 28.83230469 32.46054687 28.83230469 32.5 26.83203125 C32.15837577 23.01722731 31.48829099 21.17031374 29.171875 18.16796875 C26.20044708 16.68225479 23.15796606 16.98466251 19.8984375 16.96484375 C19.17828461 16.95914368 18.45813171 16.9534436 17.71615601 16.9475708 C16.19131947 16.9381204 14.66646251 16.93158666 13.14160156 16.92773438 C10.81278688 16.91803502 8.48485724 16.88701635 6.15625 16.85546875 C4.67448441 16.84893788 3.1927125 16.84368774 1.7109375 16.83984375 C1.01602203 16.82749695 0.32110657 16.81515015 -0.39486694 16.8024292 C-4.48675838 16.8212083 -6.90600521 17.21504211 -9.828125 20.16796875 Z " fill="#FEFEFE" transform="translate(334.828125,457.83203125)"/>
<path d="M0 0 C2.69879629 0.01071724 5.39692709 0.00006254 8.09570312 -0.01269531 C31.42468239 -0.03235857 31.42468239 -0.03235857 39.70507812 6.26074219 C44.42468496 13.12717379 44.32213552 20.00973182 44.2265625 28.09667969 C44.2051185 30.25667578 44.2264271 32.41334738 44.25195312 34.57324219 C44.26924807 42.89499468 43.91127204 49.25307263 38.3828125 55.83496094 C34.67911141 58.98246012 30.76394448 59.51435955 26.03198242 59.55126953 C24.91699875 59.56402924 23.80201508 59.57678894 22.65324402 59.5899353 C21.45734146 59.59216095 20.2614389 59.5943866 19.02929688 59.59667969 C17.79017044 59.60333649 16.55104401 59.60999329 15.27436829 59.61685181 C12.65436282 59.6269704 10.03433163 59.63166907 7.41430664 59.63134766 C4.73825054 59.63118508 2.06287869 59.64507469 -0.61303711 59.67236328 C-4.48247086 59.70909011 -8.35111222 59.7188244 -12.22070312 59.72167969 C-13.41053299 59.73605072 -14.60036285 59.75042175 -15.82624817 59.76522827 C-23.51142642 59.72317277 -29.49510842 58.97254838 -35.15014648 53.44848633 C-38.8892262 46.82673657 -39.02821203 40.21517457 -38.8918457 32.77661133 C-38.85741262 30.69768324 -38.87125878 28.6229948 -38.890625 26.54394531 C-38.88253629 18.59845745 -38.64799123 11.76424474 -32.83959961 5.75512695 C-23.90815799 -1.56998725 -10.85075247 -0.05129447 0 0 Z M-18.29492188 22.26074219 C-19.02368634 24.26802921 -19.02368634 24.26802921 -18.92382812 26.29199219 C-18.92576172 27.0203125 -18.92769531 27.74863281 -18.9296875 28.49902344 C-18.90583984 29.24539063 -18.88199219 29.99175781 -18.85742188 30.76074219 C-18.86837891 31.50710938 -18.87933594 32.25347656 -18.890625 33.02246094 C-18.84160632 36.71520165 -18.62408083 38.68650995 -16.73999023 41.97338867 C-13.49643425 45.00772477 -10.83447914 44.96852531 -6.60742188 44.88964844 C-5.86790283 44.89206039 -5.12838379 44.89447235 -4.36645508 44.8969574 C-2.80642319 44.89598001 -1.24635617 44.88261175 0.31347656 44.85766602 C2.69781609 44.82334671 5.07844939 44.83700961 7.46289062 44.85644531 C8.98113553 44.84954657 10.49937088 44.83987391 12.01757812 44.82714844 C13.08335083 44.83458824 13.08335083 44.83458824 14.1706543 44.84217834 C17.50348647 44.76310655 19.41900333 44.46647974 22.15234375 42.50073242 C23.8700109 40.0228085 24.21839192 38.83446424 24.23632812 35.85449219 C24.24148438 35.02820313 24.24664063 34.20191406 24.25195312 33.35058594 C24.23648438 32.4959375 24.22101562 31.64128906 24.20507812 30.76074219 C24.22054687 29.90609375 24.23601563 29.05144531 24.25195312 28.17089844 C24.24421875 26.93146484 24.24421875 26.93146484 24.23632812 25.66699219 C24.23181641 24.91740234 24.22730469 24.1678125 24.22265625 23.39550781 C23.46389638 20.26598124 22.30617106 19.14358976 19.70507812 17.26074219 C17.08475522 16.8501128 14.88977619 16.67539166 12.27148438 16.69433594 C11.55653305 16.68813736 10.84158173 16.68193878 10.10496521 16.67555237 C8.59627643 16.6684644 7.08750927 16.67161055 5.57885742 16.68432617 C3.27765982 16.69818149 0.98054097 16.6641313 -1.3203125 16.62597656 C-2.78971453 16.62502514 -4.25912162 16.62688542 -5.72851562 16.63183594 C-6.4119957 16.61857773 -7.09547577 16.60531952 -7.79966736 16.59165955 C-12.96307394 16.69161925 -15.20209409 18.2006749 -18.29492188 22.26074219 Z " fill="#FEFEFE" transform="translate(605.294921875,457.7392578125)"/>
<path d="M0 0 C0.82823776 -0.0033284 1.65647552 -0.0066568 2.5098114 -0.01008606 C4.25189667 -0.01511817 5.99399146 -0.01749554 7.73608398 -0.01733398 C10.36914331 -0.01951668 13.00178037 -0.03770182 15.63476562 -0.05664062 C38.83518276 -0.13652752 38.83518276 -0.13652752 46.63671875 5.55859375 C50.76174184 10.17682613 51.5249904 15.00031546 51.47265625 20.98046875 C51.47552643 21.71241455 51.47839661 22.44436035 51.48135376 23.19848633 C51.48338522 24.73812641 51.47791987 26.27779285 51.46533203 27.81738281 C51.44926378 30.16139959 51.46521052 32.50369249 51.484375 34.84765625 C51.4823924 36.35026419 51.47854838 37.85287106 51.47265625 39.35546875 C51.47872894 40.04938721 51.48480164 40.74330566 51.49105835 41.45825195 C51.41527656 46.75442281 50.18050227 50.85873604 46.57421875 54.8125 C42.08924886 58.30470312 39.20203546 59.29035535 33.59643555 59.32910156 C32.47484543 59.33870911 31.35325531 59.34831665 30.19767761 59.35821533 C28.37892876 59.36459015 28.37892876 59.36459015 26.5234375 59.37109375 C25.27673782 59.37679382 24.03003815 59.3824939 22.74555969 59.3883667 C20.10515696 59.39782041 17.46486799 59.40471528 14.82446289 59.40820312 C12.12120094 59.41259312 9.41825722 59.42650441 6.71508789 59.44921875 C2.81777242 59.47967954 -1.07914125 59.49025132 -4.9765625 59.49609375 C-6.18298904 59.50844055 -7.38941559 59.52078735 -8.63240051 59.5335083 C-16.2736633 59.51323311 -21.07533951 59.01841049 -26.67578125 53.41796875 C-31.67768585 46.19299544 -31.26225194 38.74965245 -31.23828125 30.23046875 C-31.25439453 29.08900391 -31.27050781 27.94753906 -31.28710938 26.77148438 C-31.29167718 18.86461661 -30.80157025 12.66554996 -25.61328125 6.35546875 C-17.87708213 0.05856249 -9.52858316 0.01364198 0 0 Z M-9.92578125 20.16796875 C-11.12245328 23.75798484 -11.13117006 26.75845265 -11.17578125 30.54296875 C-11.2015625 31.85007812 -11.22734375 33.1571875 -11.25390625 34.50390625 C-10.88661237 38.60535459 -9.85367588 41.24007412 -6.92578125 44.16796875 C-4.3672869 44.29370265 -1.83723539 44.35660762 0.72265625 44.37109375 C1.49098785 44.37679382 2.25931946 44.3824939 3.05093384 44.3883667 C4.68010068 44.39783055 6.30928678 44.40435616 7.93847656 44.40820312 C10.43198078 44.4179017 12.92465846 44.44890786 15.41796875 44.48046875 C16.99869301 44.48699926 18.57942318 44.49224954 20.16015625 44.49609375 C21.2805983 44.51461395 21.2805983 44.51461395 22.42367554 44.5335083 C26.47461914 44.53770686 26.47461914 44.53770686 30.02661133 42.79418945 C33.21365754 37.84687769 32.40486774 30.80553396 32.07421875 25.16796875 C30.96409603 20.2299937 30.96409603 20.2299937 27.07421875 17.16796875 C24.57923646 16.96071371 22.19854568 16.86390941 19.703125 16.8671875 C18.98438705 16.86290237 18.26564911 16.85861725 17.52513123 16.85420227 C16.00626681 16.84846425 14.48737491 16.84795484 12.96850586 16.85229492 C10.64844711 16.85545279 8.32966654 16.83199877 6.00976562 16.80664062 C4.53255369 16.8043673 3.05533833 16.80366429 1.578125 16.8046875 C0.88634659 16.79547775 0.19456818 16.78626801 -0.51817322 16.77677917 C-4.58580419 16.81571637 -7.06341246 17.17754547 -9.92578125 20.16796875 Z " fill="#FEFEFE" transform="translate(1228.92578125,457.83203125)"/>
<path d="M0 0 C11.12498581 0.22447676 11.12498581 0.22447676 15.20654297 3.52514648 C18.09971858 6.65515703 20.0663188 10.20478972 22.08154297 13.94311523 C23.25641394 15.51043261 24.46152762 17.05591739 25.70654297 18.56811523 C26.24150391 19.26678711 26.77646484 19.96545898 27.32763672 20.68530273 C30.13755774 24.30252846 33.05755856 27.82871854 35.96826172 31.36499023 C37.41208316 33.12639902 38.8304423 34.90890891 40.22607422 36.70874023 C41.88667866 39.01334804 41.88667866 39.01334804 44.08154297 39.94311523 C44.08154297 27.07311523 44.08154297 14.20311523 44.08154297 0.94311523 C50.35154297 0.94311523 56.62154297 0.94311523 63.08154297 0.94311523 C63.08154297 20.08311523 63.08154297 39.22311523 63.08154297 58.94311523 C55.93498047 59.28342773 55.93498047 59.28342773 48.64404297 59.63061523 C46.41763062 59.7808313 46.41763062 59.7808313 44.14624023 59.93408203 C34.56957726 60.15412395 34.56957726 60.15412395 30.29614258 56.67626953 C28.00339868 53.86770012 26.02709579 50.99973582 24.08154297 47.94311523 C23.10528478 46.73366238 22.10787064 45.54052784 21.07763672 44.37670898 C14.54057199 36.72185609 8.12342524 28.99895826 2.08154297 20.94311523 C1.75154297 33.48311523 1.42154297 46.02311523 1.08154297 58.94311523 C-5.51845703 58.94311523 -12.11845703 58.94311523 -18.91845703 58.94311523 C-18.94101281 51.5285116 -18.95937487 44.11392659 -18.9702692 36.699296 C-18.97549685 33.25671175 -18.98259234 29.81415211 -18.99389648 26.37158203 C-19.00679938 22.4175648 -19.01168621 18.46355768 -19.01611328 14.50952148 C-19.02127457 13.26787735 -19.02643585 12.02623322 -19.03175354 10.7469635 C-19.03182907 9.60585617 -19.0319046 8.46474884 -19.03198242 7.2890625 C-19.03420303 6.27868423 -19.03642365 5.26830597 -19.03871155 4.22731018 C-18.70782232 -2.05782178 -5.17771495 0.05460204 0 0 Z " fill="#FEFEFE" transform="translate(127.91845703125,458.056884765625)"/>
<path d="M0 0 C29 0 29 0 36.125 6.125 C37.39030137 8.06304274 38.65658817 10.00349415 39.80810547 12.01123047 C41.78807499 15.31496494 44.25862599 18.20786853 46.6875 21.1875 C47.50647737 22.24149679 48.32287436 23.2975035 49.13671875 24.35546875 C53.017793 29.29549913 57.02184328 34.13780845 61 39 C61.33 26.13 61.66 13.26 62 0 C68.27 0 74.54 0 81 0 C81 19.14 81 38.28 81 58 C76.215 58.20625 71.43 58.4125 66.5 58.625 C65.00662109 58.71604004 63.51324219 58.80708008 61.97460938 58.90087891 C52.39969804 59.10046353 52.39969804 59.10046353 48.4921875 56.02832031 C46.43646991 53.45172834 44.71922731 50.81004394 43 48 C41.83859431 46.53106986 40.65193783 45.08164808 39.4375 43.65625 C38.87184326 42.97175781 38.30618652 42.28726563 37.72338867 41.58203125 C37.15467041 40.89496094 36.58595215 40.20789063 36 39.5 C31.40233363 33.93378814 26.83869307 28.34649531 22.35546875 22.6875 C21.10748095 21.07132413 21.10748095 21.07132413 20 20 C19.67 32.54 19.34 45.08 19 58 C12.73 58 6.46 58 0 58 C0 38.86 0 19.72 0 0 Z " fill="#FEFEFE" transform="translate(731,459)"/>
<path d="M0 0 C7.93890768 -0.08405902 15.87618848 -0.16417444 23.81515503 -0.20700073 C27.5127074 -0.22805747 31.20988847 -0.25615984 34.90722656 -0.30175781 C38.47342061 -0.34545943 42.03925631 -0.36918776 45.60569763 -0.37950897 C47.61750112 -0.39041494 49.62916196 -0.42160191 51.64074707 -0.45318604 C58.90439549 -0.45495484 63.87927825 -0.04649775 70 4 C75.00312717 10.45564796 74.53365449 18.16671446 74 26 C73.15830149 29.70099786 72.09020189 32.28358161 68.8125 34.4375 C68.214375 34.623125 67.61625 34.80875 67 35 C68.175625 35.7734375 68.175625 35.7734375 69.375 36.5625 C72.53123858 39.49329297 73.4937799 41.84019138 74 46 C74.1457929 50.01684566 74.09039681 53.97734215 74 58 C67.4 58 60.8 58 54 58 C53.77213542 55.20052083 53.54427083 52.40104167 53.31640625 49.6015625 C53.15034374 47.02072387 53.15034374 47.02072387 52 45 C48.63448877 43.87816292 45.90939768 43.79199032 42.36328125 43.68359375 C41.06455078 43.64169922 39.76582031 43.59980469 38.42773438 43.55664062 C37.05599239 43.51683013 35.68424756 43.47711784 34.3125 43.4375 C32.92902355 43.39429165 31.54555973 43.35067661 30.16210938 43.30664062 C26.77486286 43.20042035 23.38744491 43.09969312 20 43 C20 47.95 20 52.9 20 58 C13.4 58 6.8 58 0 58 C0 38.86 0 19.72 0 0 Z M20 16 C20 19.96 20 23.92 20 28 C24.66305038 28.07405887 29.32575984 28.12855763 33.98925781 28.16479492 C35.57623251 28.17989814 37.16316537 28.20038223 38.75 28.22631836 C41.02875073 28.26263595 43.30695058 28.27971023 45.5859375 28.29296875 C46.29744965 28.30845261 47.00896179 28.32393646 47.74203491 28.33988953 C49.95754404 28.37546508 49.95754404 28.37546508 53 28 C55.31332486 24.53001271 55.33957563 23.07490752 55 19 C54.34 18.01 53.68 17.02 53 16 C50.44604513 15.73288596 48.13725626 15.65150971 45.5859375 15.70703125 C44.49147812 15.71339851 44.49147812 15.71339851 43.37490845 15.71989441 C41.04123241 15.73670647 38.7084156 15.77436132 36.375 15.8125 C34.79428329 15.82754366 33.21355307 15.84123262 31.6328125 15.85351562 C27.75487656 15.88661799 23.87758402 15.93841596 20 16 Z " fill="#FEFEFE" transform="translate(943,459)"/>
<path d="M0 0 C1.03165283 0.02618408 2.06330566 0.05236816 3.1262207 0.0793457 C4.24448242 0.09545898 5.36274414 0.11157227 6.51489258 0.12817383 C8.26576172 0.19101562 8.26576172 0.19101562 10.05200195 0.25512695 C11.82027344 0.28896484 11.82027344 0.28896484 13.62426758 0.32348633 C16.53894743 0.38248794 19.45109357 0.46476354 22.36450195 0.56762695 C25.95825195 6.85668945 29.55200195 13.14575195 33.14575195 19.43481445 C33.87181641 20.70518555 33.87181641 20.70518555 34.61254883 22.0012207 C35.61961941 23.76392162 36.62612355 25.52694627 37.63208008 27.2902832 C40.34216239 32.03892301 43.06335027 36.78071045 45.80200195 41.51293945 C46.35662109 42.47449951 46.91124023 43.43605957 47.48266602 44.42675781 C48.55406149 46.28374713 49.62882659 48.13879723 50.70727539 49.99169922 C51.18712891 50.82499756 51.66698242 51.6582959 52.16137695 52.5168457 C52.58773437 53.25249756 53.0140918 53.98814941 53.45336914 54.74609375 C54.36450195 56.56762695 54.36450195 56.56762695 54.36450195 58.56762695 C50.99099876 58.83054986 47.62012825 58.98926752 44.23950195 59.13012695 C43.28817383 59.20553711 42.3368457 59.28094727 41.35668945 59.35864258 C38.44668883 59.4495801 36.15250472 59.4299574 33.36450195 58.56762695 C31.97436523 56.54394531 31.97436523 56.54394531 30.80200195 54.06762695 C29.54248003 51.49736827 29.54248003 51.49736827 27.36450195 49.56762695 C21.39130324 48.38306361 15.54505126 48.71947654 9.48950195 49.00512695 C7.83075589 49.05030366 6.17189225 49.09136275 4.51293945 49.12817383 C0.46054715 49.22704734 -3.58618398 49.38212588 -7.63549805 49.56762695 C-9.28549805 52.53762695 -10.93549805 55.50762695 -12.63549805 58.56762695 C-19.89549805 58.56762695 -27.15549805 58.56762695 -34.63549805 58.56762695 C-29.85611905 48.59920791 -24.43762261 39.04652784 -18.97143555 29.44262695 C-15.53255796 23.40033887 -12.15323712 17.32623395 -8.79467773 11.23901367 C-8.41988281 10.56112793 -8.04508789 9.88324219 -7.65893555 9.18481445 C-7.33844238 8.60328613 -7.01794922 8.02175781 -6.68774414 7.42260742 C-6.16688232 6.50439209 -6.16688232 6.50439209 -5.63549805 5.56762695 C-5.2176001 4.67809326 -4.79970215 3.78855957 -4.36914062 2.87207031 C-2.63549805 0.56762695 -2.63549805 0.56762695 0 0 Z M9.36450195 16.56762695 C8.22954932 18.41571828 7.10700087 20.27142978 5.98950195 22.13012695 C5.36301758 23.16266602 4.7365332 24.19520508 4.09106445 25.2590332 C1.97403638 29.04525323 1.97403638 29.04525323 0.36450195 35.56762695 C6.96450195 35.56762695 13.56450195 35.56762695 20.36450195 35.56762695 C19.10637695 32.98950195 17.84825195 30.41137695 16.55200195 27.75512695 C15.9664856 26.54312622 15.9664856 26.54312622 15.36914062 25.30664062 C15.05178955 24.6644458 14.73443848 24.02225098 14.4074707 23.3605957 C14.0880249 22.70599365 13.7685791 22.0513916 13.43945312 21.37695312 C12.29548302 19.45145631 11.00706061 18.07927184 9.36450195 16.56762695 Z " fill="#FEFEFE" transform="translate(867.635498046875,458.432373046875)"/>
<path d="M0 0 C4.04013515 -0.29146369 8.07757429 -0.46829657 12.125 -0.625 C13.83816406 -0.75068359 13.83816406 -0.75068359 15.5859375 -0.87890625 C18.97291788 -0.97736498 21.732048 -0.90896115 25 0 C27.95565092 2.89764562 29.3507756 6.24637293 31 10 C31.98385378 11.76708112 32.9867132 13.52370761 34.0078125 15.26953125 C35.04810581 17.11649479 36.08712764 18.96417496 37.125 20.8125 C42.11807481 29.67980009 47.14588153 38.52612385 52.21728516 47.34887695 C52.68569824 48.16573975 53.15411133 48.98260254 53.63671875 49.82421875 C54.04623779 50.53666748 54.45575684 51.24911621 54.87768555 51.9831543 C55.97904616 53.96234508 57.00331806 55.96638056 58 58 C54.4597564 58.26275596 50.92201867 58.42160329 47.375 58.5625 C46.37597656 58.63791016 45.37695312 58.71332031 44.34765625 58.79101562 C41.32688494 58.88103861 38.90251421 58.8645969 36 58 C34.59619141 55.97631836 34.59619141 55.97631836 33.4375 53.5 C32.1929591 50.92545034 32.1929591 50.92545034 30 49 C23.86188748 47.81194031 17.84384862 48.15254411 11.625 48.4375 C9.91807375 48.48267477 8.21103331 48.52373419 6.50390625 48.56054688 C2.33310937 48.6594379 -1.83219198 48.81453159 -6 49 C-6.28875 49.928125 -6.5775 50.85625 -6.875 51.8125 C-8 55 -8 55 -10 58 C-12.15478516 58.34057617 -12.15478516 58.34057617 -14.7890625 58.29296875 C-15.73007813 58.28330078 -16.67109375 58.27363281 -17.640625 58.26367188 C-18.62546875 58.23853516 -19.6103125 58.21339844 -20.625 58.1875 C-22.11386719 58.16719727 -22.11386719 58.16719727 -23.6328125 58.14648438 C-26.08908072 58.11105743 -28.54427285 58.06166196 -31 58 C-29.4445529 52.56896964 -26.93618282 47.95577549 -24.1875 43.0625 C-23.70974121 42.20293701 -23.23198242 41.34337402 -22.73974609 40.45776367 C-17.85179217 31.68320203 -12.90190442 22.9429566 -7.9453125 14.20703125 C-5.2691936 9.48658183 -2.62572763 4.74864083 0 0 Z M12 16 C10.4933028 18.7881022 8.99580196 21.58103958 7.5 24.375 C7.07074219 25.1690625 6.64148437 25.963125 6.19921875 26.78125 C5.79316406 27.54179687 5.38710938 28.30234375 4.96875 29.0859375 C4.59169922 29.7876709 4.21464844 30.4894043 3.82617188 31.21240234 C2.86015672 32.97436711 2.86015672 32.97436711 3 35 C9.6 35 16.2 35 23 35 C21.35568612 30.8892153 19.57944174 27.14454767 17.5 23.25 C16.8915625 22.10015625 16.283125 20.9503125 15.65625 19.765625 C14.28907613 16.92054781 14.28907613 16.92054781 12 16 Z " fill="#FEFEFE" transform="translate(31,459)"/>
<path d="M0 0 C1.22355698 0.00222061 2.44711395 0.00444122 3.70774841 0.00672913 C4.71746201 0.00651009 4.71746201 0.00651009 5.74757385 0.00628662 C7.98229649 0.00698573 10.21693674 0.01477799 12.4516449 0.02259827 C13.99721226 0.02446245 15.54278022 0.02588635 17.08834839 0.02688599 C21.16380941 0.03071112 25.23923502 0.04054135 29.31468201 0.05158997 C33.47035747 0.0618042 37.62603864 0.06638363 41.78172302 0.07142639 C49.94124633 0.08216363 58.10073401 0.09976038 66.26023865 0.12025452 C66.26023865 5.40025452 66.26023865 10.68025452 66.26023865 16.12025452 C58.01023865 16.12025452 49.76023865 16.12025452 41.26023865 16.12025452 C41.26023865 29.98025452 41.26023865 43.84025452 41.26023865 58.12025452 C34.99023865 58.12025452 28.72023865 58.12025452 22.26023865 58.12025452 C22.26023865 44.26025452 22.26023865 30.40025452 22.26023865 16.12025452 C14.07771068 16.15984592 14.07771068 16.15984592 5.89524841 16.21034241 C4.37628967 16.21408875 4.37628967 16.21408875 2.8266449 16.21791077 C1.2634552 16.22576599 1.2634552 16.22576599 -0.33131409 16.23377991 C-2.73976135 16.12025452 -2.73976135 16.12025452 -3.73976135 15.12025452 C-3.83885438 12.78865397 -3.86946639 10.4539551 -3.86476135 8.12025452 C-3.86733948 6.84150452 -3.8699176 5.56275452 -3.87257385 4.24525452 C-3.69905083 0.16235997 -3.69905083 0.16235997 0 0 Z " fill="#FEFEFE" transform="translate(216.73976135253906,458.87974548339844)"/>
<path d="M0 0 C2.35687136 0.01607954 4.71202845 0.00009423 7.06884766 -0.01904297 C14.78468823 -0.03046244 21.73365051 0.096386 28.86181641 3.39111328 C32.05675447 6.8198273 32.80964501 8.58245662 33.11181641 13.26611328 C33.02931641 14.29736328 32.94681641 15.32861328 32.86181641 16.39111328 C30.22181641 16.39111328 27.58181641 16.39111328 24.86181641 16.39111328 C24.59369141 15.25673828 24.32556641 14.12236328 24.04931641 12.95361328 C23.46150391 11.19017578 23.46150391 11.19017578 22.86181641 9.39111328 C19.20541605 8.17231316 15.82582304 8.22886538 12.01806641 8.22314453 C11.2525647 8.21981613 10.48706299 8.21648773 9.69836426 8.21305847 C8.08114217 8.20799976 6.46390967 8.20564982 4.84667969 8.20581055 C2.37108233 8.20362147 -0.10407117 8.18544795 -2.57958984 8.16650391 C-4.1512029 8.1635703 -5.72281808 8.16158528 -7.29443359 8.16064453 C-8.03512085 8.15345901 -8.77580811 8.1462735 -9.53894043 8.13887024 C-13.28973372 8.15557482 -14.93575645 8.25616185 -18.13818359 10.39111328 C-19.02178657 13.02514494 -19.23472803 15.61972009 -19.13818359 18.39111328 C-17.80304071 20.5695043 -16.90240541 21.12816642 -14.52392578 21.9465332 C-11.07787096 22.58870122 -7.64682453 22.54728337 -4.15380859 22.56689453 C-2.56264964 22.5901004 -0.97150378 22.61421804 0.61962891 22.63916016 C3.11223023 22.6741741 5.60435132 22.70357295 8.09716797 22.71704102 C10.51409278 22.73263253 12.92963722 22.77291198 15.34619141 22.81689453 C16.07980896 22.81498611 16.81342651 22.8130777 17.5692749 22.81111145 C23.00537622 22.93786815 27.33550277 24.31864313 31.86181641 27.39111328 C35.30645416 32.01984527 35.61161582 36.81260562 34.86181641 42.39111328 C33.46873976 45.97331038 32.03009348 49.12805823 28.86181641 51.39111328 C23.51331464 53.23984659 18.78034251 53.69856264 13.14697266 53.69189453 C12.33240097 53.69617966 11.51782928 53.70046478 10.67857361 53.70487976 C8.96500574 53.71059292 7.25141364 53.7111457 5.5378418 53.70678711 C2.93512099 53.7036264 0.33353778 53.72712591 -2.26904297 53.75244141 C-3.94286968 53.75471485 -5.6166994 53.75541769 -7.29052734 53.75439453 C-8.05848129 53.76360428 -8.82643524 53.77281403 -9.61766052 53.78230286 C-15.07575879 53.73621041 -19.15544357 52.66084437 -24.13818359 50.39111328 C-27.50626715 46.85462555 -28.35827693 44.27127244 -28.38818359 39.51611328 C-28.3246035 38.14005841 -28.24803447 36.76424919 -28.13818359 35.39111328 C-21.98583984 35.29345703 -21.98583984 35.29345703 -20.13818359 35.39111328 C-19.13818359 36.39111328 -19.13818359 36.39111328 -18.76318359 39.82861328 C-18.55693359 41.00423828 -18.35068359 42.17986328 -18.13818359 43.39111328 C-14.38591066 45.89262857 -11.45221263 45.66265922 -7.11083984 45.62158203 C-6.32551376 45.62112381 -5.54018768 45.62066559 -4.73106384 45.62019348 C-3.07093799 45.61717404 -1.41081491 45.60929691 0.24926758 45.59692383 C2.78623535 45.57870721 5.32283702 45.57641396 7.85986328 45.57666016 C9.47379872 45.57174307 11.08773169 45.56591392 12.70166016 45.55908203 C13.45905991 45.55796921 14.21645966 45.55685638 14.99681091 45.55570984 C18.52005903 45.5240849 21.41652083 45.25243718 24.86181641 44.39111328 C24.86181641 40.10111328 24.86181641 35.81111328 24.86181641 31.39111328 C23.75781494 31.37129395 22.65381348 31.35147461 21.51635742 31.33105469 C17.38430616 31.25445255 13.25258223 31.16582353 9.12084961 31.07373047 C7.33934027 31.03566472 5.55775993 31.00077458 3.77612305 30.96923828 C1.2015663 30.92309669 -1.37251089 30.86518868 -3.94677734 30.80517578 C-5.12390541 30.78784897 -5.12390541 30.78784897 -6.32481384 30.77017212 C-13.07166325 30.59380552 -19.7720535 30.31359399 -25.13818359 25.95361328 C-29.03037139 20.96674767 -28.7294594 15.46908073 -28.13818359 9.39111328 C-26.30873854 4.93681229 -24.94230993 3.75926751 -20.57177734 1.75830078 C-13.89209217 -0.33628501 -6.9285193 -0.05625906 0 0 Z " fill="#FEFEFE" transform="translate(763.13818359375,369.60888671875)"/>
<path d="M0 0 C1.32806168 -0.00956978 1.32806168 -0.00956978 2.68295288 -0.01933289 C3.64947784 -0.02044571 4.61600281 -0.02155853 5.61181641 -0.02270508 C7.10208847 -0.02769768 7.10208847 -0.02769768 8.62246704 -0.03279114 C10.73593685 -0.03786906 12.84941472 -0.0401992 14.96289062 -0.04003906 C18.16501594 -0.04220364 21.3667844 -0.06028875 24.56884766 -0.0793457 C26.62483607 -0.082284 28.68082611 -0.08426587 30.73681641 -0.08520508 C31.68309906 -0.09239059 32.62938171 -0.09957611 33.6043396 -0.10697937 C50.47009597 -0.0503866 50.47009597 -0.0503866 56.33837891 4.27026367 C62.01227271 10.79524155 62.33823014 17.80138591 62.27587891 26.08276367 C62.29585937 27.02055664 62.31583984 27.95834961 62.33642578 28.92456055 C62.33158448 35.89119741 61.20513892 42.45646092 56.35546875 47.77001953 C52.17893973 51.40624642 48.93432845 52.27136146 43.54077148 52.25878906 C42.45987747 52.25871353 41.37898346 52.258638 40.26533508 52.25856018 C39.09963486 52.2533989 37.93393463 52.24823761 36.73291016 52.24291992 C35.53856857 52.24150497 34.34422699 52.24009003 33.11369324 52.2386322 C29.29272983 52.23302717 25.47182466 52.22047378 21.65087891 52.20776367 C19.06298913 52.20274932 16.47509843 52.1981863 13.88720703 52.1940918 C7.53757773 52.1830561 1.18798248 52.16631303 -5.16162109 52.14526367 C-5.18688848 44.90039816 -5.2044529 37.65554393 -5.21655273 30.41064453 C-5.22159466 27.94384334 -5.228428 25.47704515 -5.23706055 23.01025391 C-5.24913234 19.47321838 -5.25485065 15.93622222 -5.25927734 12.39916992 C-5.26443863 11.28876846 -5.26959991 10.178367 -5.2749176 9.03431702 C-5.27499313 8.0133342 -5.27506866 6.99235138 -5.27514648 5.94042969 C-5.2773671 5.03664078 -5.27958771 4.13285187 -5.28187561 3.20167542 C-5.06366563 -0.52982322 -3.2829148 0.01600669 0 0 Z M3.83837891 7.14526367 C3.83837891 20.01526367 3.83837891 32.88526367 3.83837891 46.14526367 C9.42559745 46.21427323 15.01132708 46.27396489 20.59863281 46.31005859 C22.49777243 46.32511058 24.39687749 46.34555683 26.29589844 46.37158203 C29.03149972 46.40812359 31.76663991 46.42502606 34.50244141 46.43823242 C35.34642487 46.45371628 36.19040833 46.46920013 37.05996704 46.4851532 C42.07328974 46.48657251 45.49687546 45.93611047 49.83837891 43.14526367 C55.14905985 36.3695673 54.51112308 26.74862655 53.52978516 18.57495117 C52.6752673 13.99231558 51.77039054 11.0049085 47.83837891 8.14526367 C45.1073138 7.23490864 43.53944651 7.02310654 40.73413086 7.03173828 C39.91350662 7.03181381 39.09288239 7.03188934 38.24739075 7.03196716 C36.9253791 7.03970909 36.9253791 7.03970909 35.57666016 7.04760742 C34.21797066 7.04972984 34.21797066 7.04972984 32.83183289 7.05189514 C29.938148 7.05749366 27.04454042 7.07004586 24.15087891 7.08276367 C22.18929148 7.08777886 20.22770284 7.09234174 18.26611328 7.09643555 C13.45681473 7.1066118 8.64768338 7.12618754 3.83837891 7.14526367 Z " fill="#FEFEFE" transform="translate(951.16162109375,369.854736328125)"/>
<path d="M0 0 C1.30275879 -0.00956978 1.30275879 -0.00956978 2.63183594 -0.01933289 C3.57446289 -0.02044571 4.51708984 -0.02155853 5.48828125 -0.02270508 C6.46055664 -0.02603348 7.43283203 -0.02936188 8.43457031 -0.03279114 C10.49918138 -0.037863 12.56380068 -0.04019938 14.62841797 -0.04003906 C17.76023295 -0.04220824 20.89168571 -0.06031296 24.0234375 -0.0793457 C26.03255089 -0.08228318 28.04166594 -0.0842656 30.05078125 -0.08520508 C31.44043091 -0.09598335 31.44043091 -0.09598335 32.8581543 -0.10697937 C47.60026927 -0.05622984 47.60026927 -0.05622984 52.50668335 3.31867981 C55.55057027 6.52037821 56.44283098 9.71332523 56.484375 14.06713867 C56.46503906 14.75291992 56.44570313 15.43870117 56.42578125 16.14526367 C56.44511719 16.83104492 56.46445312 17.51682617 56.484375 18.22338867 C56.43005363 23.91626864 54.61572353 26.26976675 50.80078125 30.14526367 C51.44015625 30.76401367 52.07953125 31.38276367 52.73828125 32.02026367 C56.30596571 35.69605979 55.95295599 38.82989767 55.92578125 43.70776367 C55.93158203 44.75480469 55.93158203 44.75480469 55.9375 45.82299805 C55.92742119 51.01862373 55.92742119 51.01862373 54.80078125 52.14526367 C52.16078125 52.14526367 49.52078125 52.14526367 46.80078125 52.14526367 C46.30578125 43.23526367 46.30578125 43.23526367 45.80078125 34.14526367 C42.81241209 33.39817138 40.74263854 33.00757861 37.76660156 32.93994141 C36.59584076 32.91002357 36.59584076 32.91002357 35.40142822 32.87950134 C34.56899597 32.86278885 33.73656372 32.84607635 32.87890625 32.82885742 C31.58892731 32.79768578 31.58892731 32.79768578 30.27288818 32.7658844 C27.53226527 32.70062629 24.7915485 32.6416145 22.05078125 32.58276367 C20.19009455 32.53955587 18.32941727 32.49594085 16.46875 32.4519043 C11.91285513 32.34420473 7.35688655 32.24495499 2.80078125 32.14526367 C2.80078125 38.74526367 2.80078125 45.34526367 2.80078125 52.14526367 C0.16078125 52.14526367 -2.47921875 52.14526367 -5.19921875 52.14526367 C-6.19921875 51.14526367 -6.19921875 51.14526367 -6.31947327 49.1268158 C-6.31725266 48.24079178 -6.31503204 47.35476776 -6.31274414 46.44189453 C-6.31266861 45.44093246 -6.31259308 44.4399704 -6.31251526 43.40867615 C-6.30735397 42.32014847 -6.30219269 41.23162079 -6.296875 40.11010742 C-6.29546005 39.00172012 -6.2940451 37.89333282 -6.29258728 36.75135803 C-6.28696908 33.19513298 -6.2744135 29.63896984 -6.26171875 26.08276367 C-6.25670609 23.6784677 -6.25214278 21.27417075 -6.24804688 18.86987305 C-6.23699374 12.96164863 -6.22023792 7.05346057 -6.19921875 1.14526367 C-3.89316183 -0.00776479 -2.56552291 0.0127864 0 0 Z M2.80078125 7.14526367 C2.80078125 13.41526367 2.80078125 19.68526367 2.80078125 26.14526367 C7.47836211 26.19144933 12.15513556 26.23119067 16.83276367 26.25512695 C18.42035621 26.26511688 20.00793068 26.27871347 21.59545898 26.29614258 C33.8497009 26.53326279 33.8497009 26.53326279 45.80078125 24.14526367 C48.64425 20.53624565 47.78134276 16.47517685 47.28515625 12.13354492 C46.93037758 9.92842855 46.93037758 9.92842855 44.80078125 8.14526367 C40.64788336 6.77930311 36.42123312 7.02007676 32.09765625 7.04760742 C31.25986633 7.04902237 30.42207642 7.05043732 29.55889893 7.05189514 C26.88948968 7.0574817 24.22016505 7.07003173 21.55078125 7.08276367 C19.73828246 7.08778041 17.92578236 7.09234301 16.11328125 7.09643555 C11.67572261 7.10659479 7.23834639 7.12617281 2.80078125 7.14526367 Z " fill="#FEFEFE" transform="translate(611.19921875,369.854736328125)"/>
<path d="M0 0 C10.24758742 0.11678162 17.64605957 10.49241868 24.3125 17.3046875 C26.84239401 19.84312845 29.48747349 22.17050205 32.2109375 24.49609375 C36.37849713 28.17136883 40.39865083 32.00808411 44.43432617 35.82714844 C45.37369019 36.71128418 45.37369019 36.71128418 46.33203125 37.61328125 C46.8938208 38.14477783 47.45561035 38.67627441 48.03442383 39.22387695 C49.78197566 40.8262489 49.78197566 40.8262489 52.625 42.625 C52.66258423 40.76983765 52.66258423 40.76983765 52.70092773 38.87719727 C52.79482253 34.30563287 52.89508629 29.73422682 52.99731445 25.1628418 C53.04073144 23.18110854 53.08240137 21.19933622 53.12231445 19.2175293 C53.17985383 16.3753683 53.24359445 13.53340517 53.30859375 10.69140625 C53.32530624 9.79974258 53.34201874 8.90807892 53.35923767 7.98939514 C53.51112829 1.73887171 53.51112829 1.73887171 54.625 0.625 C58.125 0.5 58.125 0.5 61.625 0.625 C62.625 1.625 62.625 1.625 62.74525452 3.68141174 C62.74303391 4.58520065 62.74081329 5.48898956 62.73852539 6.42016602 C62.73841209 7.95164024 62.73841209 7.95164024 62.73829651 9.51405334 C62.73313522 10.6244548 62.72797394 11.73485626 62.72265625 12.87890625 C62.7212413 14.00948959 62.71982635 15.14007294 62.71836853 16.30491638 C62.71275019 19.93247065 62.70019458 23.55996424 62.6875 27.1875 C62.68248736 29.63997307 62.67792405 32.0924471 62.67382812 34.54492188 C62.6627748 40.57163545 62.64601884 46.59831339 62.625 52.625 C51.64396388 53.69357848 51.64396388 53.69357848 47.18115234 51.33154297 C45.05691294 49.52185538 43.18342396 47.63241691 41.3125 45.5625 C40.02604047 44.23701743 38.73828144 42.91279484 37.44921875 41.58984375 C36.82047852 40.92629883 36.19173828 40.26275391 35.54394531 39.57910156 C33.03610179 37.02531282 30.35909652 34.71217771 27.64477539 32.38208008 C23.45812451 28.7399519 19.4745319 24.87298455 15.44921875 21.0546875 C14.78277344 20.425625 14.11632812 19.7965625 13.4296875 19.1484375 C12.84171387 18.59075684 12.25374023 18.03307617 11.64794922 17.45849609 C9.04506099 15.0993734 6.32368678 12.87390565 3.625 10.625 C3.295 24.485 2.965 38.345 2.625 52.625 C-0.015 52.625 -2.655 52.625 -5.375 52.625 C-5.40026739 45.38013449 -5.4178318 38.13528026 -5.42993164 30.89038086 C-5.43497356 28.42357967 -5.44180691 25.95678148 -5.45043945 23.48999023 C-5.46251125 19.95295471 -5.46822956 16.41595855 -5.47265625 12.87890625 C-5.47781754 11.76850479 -5.48297882 10.65810333 -5.48829651 9.51405334 C-5.48837204 8.49307053 -5.48844757 7.47208771 -5.48852539 6.42016602 C-5.490746 5.51637711 -5.49296661 4.6125882 -5.49525452 3.68141174 C-5.27967151 -0.0051644 -3.30983543 0.28191027 0 0 Z " fill="#FEFEFE" transform="translate(143.375,369.375)"/>
<path d="M0 0 C1.32806168 -0.00956978 1.32806168 -0.00956978 2.68295288 -0.01933289 C3.64947784 -0.02044571 4.61600281 -0.02155853 5.61181641 -0.02270508 C7.10208847 -0.02769768 7.10208847 -0.02769768 8.62246704 -0.03279114 C10.73593685 -0.03786906 12.84941472 -0.0401992 14.96289062 -0.04003906 C18.16501594 -0.04220364 21.3667844 -0.06028875 24.56884766 -0.0793457 C26.62483607 -0.082284 28.68082611 -0.08426587 30.73681641 -0.08520508 C31.68309906 -0.09239059 32.62938171 -0.09957611 33.6043396 -0.10697937 C50.62241434 -0.0498755 50.62241434 -0.0498755 56.40087891 4.52026367 C61.88657413 10.42793545 61.21083032 16.0890878 61.20898438 23.87988281 C61.21334387 25.94119772 61.24964669 28.00034479 61.28759766 30.0612793 C61.32591566 43.07024182 61.32591566 43.07024182 56.83837891 48.14526367 C49.96897172 52.5321426 44.26507891 52.68115074 36.24462891 52.53588867 C35.05736206 52.53022888 33.87009521 52.52456909 32.64685059 52.51873779 C28.87693959 52.49645377 25.10799977 52.44626952 21.33837891 52.39526367 C18.77328852 52.37518849 16.20818315 52.35693951 13.64306641 52.34057617 C7.37450921 52.29661497 1.10651347 52.22978172 -5.16162109 52.14526367 C-5.18688848 44.90039816 -5.2044529 37.65554393 -5.21655273 30.41064453 C-5.22159466 27.94384334 -5.228428 25.47704515 -5.23706055 23.01025391 C-5.24913234 19.47321838 -5.25485065 15.93622222 -5.25927734 12.39916992 C-5.26443863 11.28876846 -5.26959991 10.178367 -5.2749176 9.03431702 C-5.27499313 8.0133342 -5.27506866 6.99235138 -5.27514648 5.94042969 C-5.2773671 5.03664078 -5.27958771 4.13285187 -5.28187561 3.20167542 C-5.06366563 -0.52982322 -3.2829148 0.01600669 0 0 Z M3.83837891 7.14526367 C3.83837891 20.01526367 3.83837891 32.88526367 3.83837891 46.14526367 C10.12900391 46.20713867 16.41962891 46.26901367 22.90087891 46.33276367 C24.8732251 46.36007568 26.84557129 46.3873877 28.87768555 46.41552734 C30.45962921 46.42429792 32.04157969 46.43194051 33.62353516 46.43823242 C34.42980347 46.45358032 35.23607178 46.46892822 36.06677246 46.48474121 C41.4170529 46.48719359 45.08656798 45.64952945 49.83837891 43.14526367 C54.37354327 38.45892716 54.02054651 32.97717597 54.02587891 26.77026367 C54.04424805 25.65651367 54.04424805 25.65651367 54.06298828 24.52026367 C54.07774492 18.95209256 53.60704153 14.25624809 49.90087891 9.83276367 C46.91601746 7.3906043 44.46239301 7.02026671 40.73413086 7.03173828 C39.91350662 7.03181381 39.09288239 7.03188934 38.24739075 7.03196716 C36.9253791 7.03970909 36.9253791 7.03970909 35.57666016 7.04760742 C34.21797066 7.04972984 34.21797066 7.04972984 32.83183289 7.05189514 C29.938148 7.05749366 27.04454042 7.07004586 24.15087891 7.08276367 C22.18929148 7.08777886 20.22770284 7.09234174 18.26611328 7.09643555 C13.45681473 7.1066118 8.64768338 7.12618754 3.83837891 7.14526367 Z " fill="#FEFEFE" transform="translate(1219.16162109375,369.854736328125)"/>
<path d="M0 0 C8.559375 -0.020625 17.11875 -0.04125 25.9375 -0.0625 C28.64316162 -0.071604 31.34882324 -0.08070801 34.13647461 -0.09008789 C36.26676382 -0.09300685 38.39705358 -0.09555545 40.52734375 -0.09765625 C41.64500122 -0.10277222 42.76265869 -0.10788818 43.91418457 -0.11315918 C45.49761658 -0.11334045 45.49761658 -0.11334045 47.11303711 -0.11352539 C48.03459091 -0.115746 48.95614471 -0.11796661 49.90562439 -0.12025452 C52 0 52 0 53 1 C53 2.98 53 4.96 53 7 C38.15 7 23.3 7 8 7 C8 11.95 8 16.9 8 22 C22.19 22 36.38 22 51 22 C51 24.31 51 26.62 51 29 C36.81 29 22.62 29 8 29 C8 34.61 8 40.22 8 46 C22.85 46 37.7 46 53 46 C53 47.98 53 49.96 53 52 C35.51 52 18.02 52 0 52 C0 34.84 0 17.68 0 0 Z " fill="#FEFEFE" transform="translate(485,370)"/>
<path d="M0 0 C2.86969128 0.18257416 4.16882526 0.43842227 6.26171875 2.44140625 C7.87912803 4.8475795 9.24936669 7.32279143 10.625 9.875 C11.86537447 11.90175567 13.11607488 13.92221468 14.375 15.9375 C15.04917969 17.03964844 15.72335937 18.14179688 16.41796875 19.27734375 C18.81851365 23.19906918 21.25068965 27.10073437 23.6875 31 C24.10789551 31.67450195 24.52829102 32.34900391 24.96142578 33.04394531 C26.88564796 36.12479967 28.82281174 39.19395856 30.81640625 42.23046875 C31.45449219 43.20628906 32.09257813 44.18210937 32.75 45.1875 C33.30945312 46.02925781 33.86890625 46.87101562 34.4453125 47.73828125 C35.625 49.875 35.625 49.875 35.625 52.875 C32.49776503 53.36554666 29.72980755 53.57072611 26.625 52.875 C24.27611994 50.52611994 22.85335245 47.94896744 21.625 44.875 C21.625 44.215 21.625 43.555 21.625 42.875 C15.60990935 42.79532235 9.59853653 42.77463434 3.58300781 42.80786133 C1.53837231 42.81093767 -0.50635318 42.79808441 -2.55078125 42.76879883 C-5.49647724 42.72939871 -8.43709745 42.74788001 -11.3828125 42.77734375 C-12.2924173 42.75276596 -13.20202209 42.72818817 -14.13919067 42.7028656 C-16.83400994 42.76343982 -18.85472461 42.90549284 -21.375 43.875 C-23.30076688 46.09852814 -24.6216819 48.26241676 -25.93771362 50.88990784 C-27.375 52.875 -27.375 52.875 -29.83206177 53.45079041 C-32.07695616 53.43845115 -34.16715068 53.27241288 -36.375 52.875 C-34.6322646 47.83930528 -31.87407486 43.47020082 -29.125 38.9375 C-28.34286133 37.64187134 -28.34286133 37.64187134 -27.54492188 36.32006836 C-23.39444974 29.47999717 -19.15702132 22.69587781 -14.875 15.9375 C-14.2881543 15.00881104 -13.70130859 14.08012207 -13.09667969 13.12329102 C-4.82452608 0.15235346 -4.82452608 0.15235346 0 0 Z M-1.375 9.875 C-2.68275702 11.73892955 -3.89473672 13.67031569 -5.0625 15.625 C-5.41119141 16.20467529 -5.75988281 16.78435059 -6.11914062 17.3815918 C-7.21353948 19.20748646 -8.29595638 21.03999427 -9.375 22.875 C-9.72385254 23.46684082 -10.07270508 24.05868164 -10.43212891 24.66845703 C-12.42882304 28.06160042 -14.40846919 31.46429812 -16.375 34.875 C-15.26152404 36.21496932 -15.26152404 36.21496932 -12.41577148 35.98852539 C-10.47553101 35.98067017 -10.47553101 35.98067017 -8.49609375 35.97265625 C-7.8094313 35.9712413 -7.12276886 35.96982635 -6.41529846 35.96836853 C-4.21432199 35.96275479 -2.01344591 35.95020007 0.1875 35.9375 C1.67643083 35.93248676 3.16536324 35.92792355 4.65429688 35.92382812 C8.31123075 35.91278093 11.96810558 35.89550713 15.625 35.875 C14.28066485 31.66833312 12.80601031 28.2582927 10.375 24.5625 C9.75753906 23.62148438 9.14007812 22.68046875 8.50390625 21.7109375 C7.88386719 20.77507812 7.26382812 19.83921875 6.625 18.875 C6.05652344 17.98039062 5.48804688 17.08578125 4.90234375 16.1640625 C4.37769531 15.34679687 3.85304688 14.52953125 3.3125 13.6875 C2.60673828 12.58341797 2.60673828 12.58341797 1.88671875 11.45703125 C1.47035156 10.93496094 1.05398438 10.41289062 0.625 9.875 C-0.035 9.875 -0.695 9.875 -1.375 9.875 Z " fill="#FEFEFE" transform="translate(1113.375,369.125)"/>
<path d="M0 0 C6.27 0 12.54 0 19 0 C19 19.14 19 38.28 19 58 C12.4 58 5.8 58 -1 58 C-1.02255577 50.58539637 -1.04091784 43.17081135 -1.05181217 35.75618076 C-1.05703982 32.31359652 -1.06413531 28.87103688 -1.07543945 25.4284668 C-1.08834235 21.47444957 -1.09322918 17.52044244 -1.09765625 13.56640625 C-1.10281754 12.32476212 -1.10797882 11.08311798 -1.11329651 9.80384827 C-1.11337204 8.66274094 -1.11344757 7.52163361 -1.11352539 6.34594727 C-1.115746 5.335569 -1.11796661 4.32519073 -1.12025452 3.28419495 C-1 1 -1 1 0 0 Z " fill="#FEFEFE" transform="translate(1045,459)"/>
<path d="M0 0 C0.804375 -0.00128906 1.60875 -0.00257813 2.4375 -0.00390625 C3.283125 -0.00003906 4.12875 0.00382812 5 0.0078125 C6.2684375 0.00201172 6.2684375 0.00201172 7.5625 -0.00390625 C8.366875 -0.00261719 9.17125 -0.00132812 10 0 C10.7425 0.00112793 11.485 0.00225586 12.25 0.00341797 C14 0.1328125 14 0.1328125 15 1.1328125 C15.09370624 2.91273174 15.11744271 4.69637989 15.11352539 6.47875977 C15.11344986 7.6198671 15.11337433 8.76097443 15.11329651 9.93666077 C15.10813522 11.1783049 15.10297394 12.41994904 15.09765625 13.69921875 C15.0962413 14.96297836 15.09482635 16.22673798 15.09336853 17.52879333 C15.08870582 20.89406139 15.0797148 24.2592624 15.06866455 27.62451172 C15.05844846 31.0563092 15.05387049 34.48811359 15.04882812 37.91992188 C15.0377738 44.65757314 15.02049637 51.39518361 15 58.1328125 C8.4 58.1328125 1.8 58.1328125 -5 58.1328125 C-5.02255577 50.71820887 -5.04091784 43.30362385 -5.05181217 35.88899326 C-5.05703982 32.44640902 -5.06413531 29.00384938 -5.07543945 25.5612793 C-5.08834235 21.60726207 -5.09322918 17.65325494 -5.09765625 13.69921875 C-5.10281754 12.45757462 -5.10797882 11.21593048 -5.11329651 9.93666077 C-5.11337204 8.79555344 -5.11344757 7.65444611 -5.11352539 6.47875977 C-5.115746 5.4683815 -5.11796661 4.45800323 -5.12025452 3.41700745 C-4.91723699 -0.43924366 -3.44525866 0.00523368 0 0 Z " fill="#FEFEFE" transform="translate(526,458.8671875)"/>
<path d="M0 0 C3 0.125 3 0.125 4 1.125 C4.11085007 4.03362179 4.16164744 6.92249993 4.17578125 9.83203125 C4.19898264 11.63347519 4.22310011 13.43490751 4.24804688 15.23632812 C4.28316245 18.08707396 4.3124995 20.93739433 4.32592773 23.78833008 C4.34139709 26.53259337 4.38160509 29.27559962 4.42578125 32.01953125 C4.42387283 32.87070023 4.42196442 33.7218692 4.41999817 34.59883118 C4.49508892 38.22930252 4.63340946 40.50954395 6.5144043 43.66748047 C10.06129969 45.74733171 13.35169622 45.640834 17.34375 45.55078125 C18.14985718 45.54749313 18.95596436 45.54420502 19.78649902 45.54081726 C22.3582137 45.52508712 24.92862213 45.48103783 27.5 45.4375 C29.23045814 45.42600678 30.96092852 45.41622217 32.69140625 45.40820312 C34.34636744 45.39477624 36.00131731 45.37985249 37.65625 45.36328125 C38.43238647 45.35589432 39.20852295 45.34850739 40.00817871 45.34089661 C43.49702435 45.27934778 46.64152379 45.05625349 50 44.125 C50.02505615 42.82763916 50.0501123 41.53027832 50.07592773 40.19360352 C50.16981752 35.39841144 50.27008249 30.6033705 50.37231445 25.80834961 C50.41573334 23.72960943 50.45740312 21.65083197 50.49731445 19.57202148 C50.55484921 16.59086855 50.61859119 13.60990451 50.68359375 10.62890625 C50.70030624 9.69349503 50.71701874 8.7580838 50.73423767 7.79432678 C50.75418289 6.93350998 50.77412811 6.07269318 50.79467773 5.18579102 C50.81022202 4.42412125 50.8257663 3.66245148 50.84178162 2.87770081 C51 1.125 51 1.125 52 0.125 C55 0 55 0 58 0.125 C59.54547116 1.67047116 59.15748177 3.13780289 59.19287109 5.29003906 C59.20893402 6.17475891 59.22499695 7.05947876 59.24154663 7.9710083 C59.28589688 12.03128429 59.32707987 16.09139386 59.35009766 20.15185547 C59.36664474 22.29356766 59.39391815 24.43522492 59.43212891 26.57666016 C59.48690467 29.66077395 59.50877495 32.74359021 59.5234375 35.828125 C59.54610687 36.78350159 59.56877625 37.73887817 59.59213257 38.72320557 C59.5779403 43.19161449 59.49671426 45.43011709 56.84228516 49.14355469 C51.02499558 53.19896803 45.7610304 53.4243655 38.91015625 53.390625 C37.61603065 53.39349518 37.61603065 53.39349518 36.29576111 53.39642334 C34.47785143 53.39777944 32.65993188 53.39412328 30.84204102 53.38574219 C28.0748088 53.37504757 25.30822764 53.38565024 22.54101562 53.3984375 C20.76822775 53.39711555 18.99544027 53.39455242 17.22265625 53.390625 C16.4026564 53.39467346 15.58265656 53.39872192 14.73780823 53.40289307 C8.3298474 53.35116298 3.15566378 52.97211651 -1.90478516 48.63598633 C-4.99845089 44.44162406 -4.64605637 39.97062759 -4.5234375 34.94921875 C-4.51873444 33.98345413 -4.51403137 33.01768951 -4.50918579 32.0226593 C-4.48790713 28.95186845 -4.43129214 25.88282707 -4.375 22.8125 C-4.35848755 20.72853182 -4.34414086 18.64454529 -4.33203125 16.56054688 C-4.2980948 12.76760047 -4.26358488 8.97482641 -4.19287109 5.18237305 C-4.18001068 4.42103561 -4.16715027 3.65969818 -4.15390015 2.87528992 C-3.88318306 -0.20354663 -3.13959134 0.13081631 0 0 Z " fill="#FEFEFE" transform="translate(8,369.875)"/>
<path d="M0 0 C3.6875 0.3125 3.6875 0.3125 5.58984375 1.77734375 C8.52322491 5.32252881 10.68675084 9.18428321 12.9375 13.1875 C13.41840088 14.03014404 13.89930176 14.87278809 14.39477539 15.7409668 C15.83188737 18.26134823 17.26065681 20.78629412 18.6875 23.3125 C19.82947451 25.32724003 20.97264286 27.34127841 22.11816406 29.35400391 C23.06033302 31.01125261 23.99716221 32.67153386 24.93359375 34.33203125 C26.74684872 37.41335316 28.67746932 40.35709226 30.6875 43.3125 C31.02894043 42.7047876 31.37038086 42.0970752 31.72216797 41.47094727 C37.53240822 31.13806272 43.34614685 20.80629391 49.3125 10.5625 C49.7132373 9.86713135 50.11397461 9.1717627 50.52685547 8.45532227 C54.27188684 2.06754334 54.27188684 2.06754334 56.6875 0.3125 C60.375 0.125 60.375 0.125 63.6875 0.3125 C63.6875 4.69562379 62.95902074 6.09259508 60.8359375 9.8203125 C59.92908203 11.42519531 59.92908203 11.42519531 59.00390625 13.0625 C58.04291016 14.733125 58.04291016 14.733125 57.0625 16.4375 C56.44503906 17.52804687 55.82757813 18.61859375 55.19140625 19.7421875 C51.87592588 25.57743295 48.47103682 31.34943715 44.9921875 37.08837891 C43.82737594 39.0740513 42.76450714 41.07320357 41.73828125 43.1328125 C40.87783203 44.76863281 40.87783203 44.76863281 40 46.4375 C39.43925781 47.55382812 38.87851562 48.67015625 38.30078125 49.8203125 C35.15375992 52.82150773 34.13867147 52.6729268 29.91796875 52.6796875 C28.17272937 52.58547407 26.42799262 52.47194307 24.6875 52.3125 C24.35129639 51.71526123 24.01509277 51.11802246 23.66870117 50.50268555 C17.30082216 39.19702495 10.91483884 27.90408888 4.37963867 16.6940918 C1.41563868 11.60297914 -1.46890219 6.47181497 -4.3125 1.3125 C-3.3125 0.3125 -3.3125 0.3125 0 0 Z " fill="#FEFEFE" transform="translate(354.3125,369.6875)"/>
<path d="M0 0 C3.5 0.125 3.5 0.125 4.5 1.125 C4.59333705 2.72110982 4.61745372 4.32133428 4.61352539 5.92016602 C4.61344986 6.94114883 4.61337433 7.96213165 4.61329651 9.01405334 C4.60813522 10.1244548 4.60297394 11.23485626 4.59765625 12.37890625 C4.5962413 13.50948959 4.59482635 14.64007294 4.59336853 15.80491638 C4.58775019 19.43247065 4.57519458 23.05996424 4.5625 26.6875 C4.55748736 29.13997307 4.55292405 31.5924471 4.54882812 34.04492188 C4.5377748 40.07163545 4.52101884 46.09831339 4.5 52.125 C1.53 52.125 -1.44 52.125 -4.5 52.125 C-4.52526739 44.88013449 -4.5428318 37.63528026 -4.55493164 30.39038086 C-4.55997356 27.92357967 -4.56680691 25.45678148 -4.57543945 22.98999023 C-4.58751125 19.45295471 -4.59322956 15.91595855 -4.59765625 12.37890625 C-4.60281754 11.26850479 -4.60797882 10.15810333 -4.61329651 9.01405334 C-4.61337204 7.99307053 -4.61344757 6.97208771 -4.61352539 5.92016602 C-4.615746 5.01637711 -4.61796661 4.1125882 -4.62025452 3.18141174 C-4.41246704 -0.37185691 -3.69231973 0.13186856 0 0 Z " fill="#FEFEFE" transform="translate(871.5,369.875)"/>
<path d="M0 0 C3.16848027 0.41809201 3.16848027 0.41809201 6 0 C6.66 -0.99 7.32 -1.98 8 -3 C9.9453125 -3.29296875 9.9453125 -3.29296875 12.125 -3.1875 C13.40375 -3.125625 14.6825 -3.06375 16 -3 C17 -1 17 -1 16.6171875 0.8046875 C14.93976567 5.48381156 13.54638237 8.52914001 9 11 C2.77520369 12.80719893 -2.37041178 11.66432481 -8.421875 9.69140625 C-11.06439115 8.98273146 -13.2780435 8.87760987 -16 9 C-16.66 10.32 -17.32 11.64 -18 13 C-20.31 13 -22.62 13 -25 13 C-26.17614886 9.47155342 -25.54604414 8.0779029 -24.0234375 4.78125 C-18.12480059 -5.48507988 -9.54748593 -3.18249531 0 0 Z " fill="#FEFEFE" transform="translate(1137,443)"/>
<path d="M0 0 C2.31 0 4.62 0 7 0 C8 1 8 1 8.12025452 3.05641174 C8.1169236 4.41209511 8.1169236 4.41209511 8.11352539 5.79516602 C8.11344986 6.81614883 8.11337433 7.83713165 8.11329651 8.88905334 C8.10813522 9.9994548 8.10297394 11.10985626 8.09765625 12.25390625 C8.0962413 13.38448959 8.09482635 14.51507294 8.09336853 15.67991638 C8.08775019 19.30747065 8.07519458 22.93496424 8.0625 26.5625 C8.05748736 29.01497307 8.05292405 31.4674471 8.04882812 33.91992188 C8.0377748 39.94663545 8.02101884 45.97331339 8 52 C5.36 52 2.72 52 0 52 C0 34.84 0 17.68 0 0 Z " fill="#FEFEFE" transform="translate(277,370)"/>
</svg>